<svg viewBox="0 0 16 16" >
    <g>
        <path fill-rule="evenodd" clip-rule="evenodd" d="M4.57122 8.04286V2H5.42836V8.04286C6.40647 8.24141 7.14265 9.10616 7.14265 10.1429C7.14265 11.1796 6.40647 12.0443 5.42836 12.2428V14H4.57122V12.2428C3.59312 12.0443 2.85693 11.1796 2.85693 10.1429C2.85693 9.10616 3.59312 8.24141 4.57122 8.04286ZM6.14265 10.1429C6.14265 10.774 5.63097 11.2857 4.99979 11.2857C4.36861 11.2857 3.85693 10.774 3.85693 10.1429C3.85693 9.51167 4.36861 9 4.99979 9C5.63097 9 6.14265 9.51167 6.14265 10.1429ZM10.5712 14H11.4284V7.95714C12.4065 7.75859 13.1426 6.89384 13.1426 5.85714C13.1426 4.82045 12.4065 3.9557 11.4284 3.75715V2H10.5712V3.75715C9.59312 3.9557 8.85693 4.82045 8.85693 5.85714C8.85693 6.89384 9.59312 7.75859 10.5712 7.95714V14ZM12.1426 5.85714C12.1426 5.22596 11.631 4.71429 10.9998 4.71429C10.3686 4.71429 9.85693 5.22596 9.85693 5.85714C9.85693 6.48833 10.3686 7 10.9998 7C11.631 7 12.1426 6.48833 12.1426 5.85714Z" />
    </g>
</svg>
